<mxfile host="Electron" modified="2024-04-02T13:00:30.867Z" agent="Mozilla/5.0 (Windows NT 10.0; Win64; x64) AppleWebKit/537.36 (KHTML, like Gecko) draw.io/24.0.4 Chrome/120.0.6099.109 Electron/28.1.0 Safari/537.36" etag="fdwMIFcH5ofgSwn3Vol9" version="24.0.4" type="device">
  <diagram name="Page-1" id="APDcLinuoei2gfIHiNEp">
    <mxGraphModel dx="989" dy="259" grid="0" gridSize="10" guides="1" tooltips="1" connect="1" arrows="1" fold="1" page="0" pageScale="1" pageWidth="850" pageHeight="1100" background="#ffffff" math="0" shadow="0">
      <root>
        <mxCell id="0" />
        <mxCell id="1" parent="0" />
        <UserObject label="" tags="Background" id="xrm-GU9jQfW-YAKHfBds-1">
          <mxCell style="vsdxID=7002;rotation=270;fillColor=#0070c0;gradientColor=none;shape=stencil(nZBLDoAgDERP0z3SIyjew0SURgSD+Lu9kMZoXLhwN9O+tukAlrNpJg1SzDH4QW/URgNYgZTkjA4UkwJUgGXng+6DX1zLfmoymdXo17xh5zmRJ6Q42BWCfc2oJfdAr+Yv+AP9Cb7OJ3H/2JG1HNGz/84klThPVCc=);strokeColor=none;points=[];labelBackgroundColor=none;rounded=0;html=1;whiteSpace=wrap;" parent="1" vertex="1">
            <mxGeometry x="339" y="625" width="300" height="180" as="geometry" />
          </mxCell>
        </UserObject>
        <UserObject label="&lt;div style=&quot;font-size: 1px&quot;&gt;&lt;font style=&quot;font-size:14.11px;font-family:Segoe UI Semibold;color:#ffffff;direction:ltr;letter-spacing:0px;line-height:120%;opacity:1&quot;&gt;&lt;b&gt;Azure Sentinel&lt;br/&gt;&lt;/b&gt;&lt;/font&gt;&lt;/div&gt;" tags="Background" id="xrm-GU9jQfW-YAKHfBds-2">
          <mxCell style="verticalAlign=middle;align=center;overflow=width;vsdxID=7003;fillColor=none;gradientColor=none;shape=stencil(nZBLDoAgDERP0z3SIyjew0SURgSD+Lu9kMZoXLhwN9O+tukAlrNpJg1SzDH4QW/URgNYgZTkjA4UkwJUgGXng+6DX1zLfmoymdXo17xh5zmRJ6Q42BWCfc2oJfdAr+Yv+AP9Cb7OJ3H/2JG1HNGz/84klThPVCc=);strokeColor=none;points=[];labelBackgroundColor=none;rounded=0;html=1;whiteSpace=wrap;" parent="1" vertex="1">
            <mxGeometry x="403" y="790" width="180" height="20" as="geometry" />
          </mxCell>
        </UserObject>
        <UserObject label="&lt;div style=&quot;font-size: 1px&quot;&gt;&lt;font style=&quot;font-size:14.11px;font-family:Segoe UI Semibold;color:#ffffff;direction:ltr;letter-spacing:0px;line-height:120%;opacity:1&quot;&gt;&lt;b&gt;Azure Storage&lt;br/&gt;&lt;/b&gt;&lt;/font&gt;&lt;/div&gt;" tags="Background" id="xrm-GU9jQfW-YAKHfBds-10">
          <mxCell style="verticalAlign=middle;align=center;overflow=width;vsdxID=7021;fillColor=none;gradientColor=none;shape=stencil(nZBLDoAgDERP0z3SIyjew0SURgSD+Lu9kMZoXLhwN9O+tukAlrNpJg1SzDH4QW/URgNYgZTkjA4UkwJUgGXng+6DX1zLfmoymdXo17xh5zmRJ6Q42BWCfc2oJfdAr+Yv+AP9Cb7OJ3H/2JG1HNGz/84klThPVCc=);strokeColor=none;points=[];labelBackgroundColor=none;rounded=0;html=1;whiteSpace=wrap;" parent="1" vertex="1">
            <mxGeometry x="399" y="652" width="180" height="20" as="geometry" />
          </mxCell>
        </UserObject>
        <UserObject label="" tags="Background" id="xrm-GU9jQfW-YAKHfBds-11">
          <mxCell style="vsdxID=7030;rotation=270;fillColor=#41719c;gradientColor=none;shape=stencil(nZBLDoAgDERP0z3SIyjew0SURgSD+Lu9kMZoXLhwN9O+tukAlrNpJg1SzDH4QW/URgNYgZTkjA4UkwJUgGXng+6DX1zLfmoymdXo17xh5zmRJ6Q42BWCfc2oJfdAr+Yv+AP9Cb7OJ3H/2JG1HNGz/84klThPVCc=);strokeColor=none;points=[];labelBackgroundColor=none;rounded=0;html=1;whiteSpace=wrap;" parent="1" vertex="1">
            <mxGeometry x="-11" y="655" width="300" height="120" as="geometry" />
          </mxCell>
        </UserObject>
        <UserObject label="&lt;div style=&quot;font-size: 1px&quot;&gt;&lt;font style=&quot;font-size:14.11px;font-family:Segoe UI Semibold;color:#ffffff;direction:ltr;letter-spacing:0px;line-height:120%;opacity:1&quot;&gt;&lt;b&gt;Azure Activity Logs&lt;br/&gt;&lt;/b&gt;&lt;/font&gt;&lt;/div&gt;" tags="Background" id="xrm-GU9jQfW-YAKHfBds-12">
          <mxCell style="verticalAlign=middle;align=center;overflow=width;vsdxID=7031;fillColor=none;gradientColor=none;shape=stencil(nZBLDoAgDERP0z3SIyjew0SURgSD+Lu9kMZoXLhwN9O+tukAlrNpJg1SzDH4QW/URgNYgZTkjA4UkwJUgGXng+6DX1zLfmoymdXo17xh5zmRJ6Q42BWCfc2oJfdAr+Yv+AP9Cb7OJ3H/2JG1HNGz/84klThPVCc=);strokeColor=none;points=[];labelBackgroundColor=none;rounded=0;html=1;whiteSpace=wrap;" parent="1" vertex="1">
            <mxGeometry x="79" y="745" width="120" height="52" as="geometry" />
          </mxCell>
        </UserObject>
        <UserObject label="&lt;div style=&quot;font-size: 1px&quot;&gt;&lt;font style=&quot;font-size:11.29px;font-family:Segoe UI Semibold;color:#FFFFFF;direction:ltr;letter-spacing:0px;line-height:120%;opacity:1&quot;&gt;&lt;b&gt;Administrative&lt;br/&gt;&lt;/b&gt;&lt;/font&gt;&lt;/div&gt;" tags="Background" id="xrm-GU9jQfW-YAKHfBds-13">
          <mxCell style="verticalAlign=middle;align=center;overflow=width;vsdxID=7039;fillColor=#41719c;gradientColor=none;shape=stencil(nZBLDoAgDERP0z3SIyjew0SURgSD+Lu9kMZoXLhwN9O+tukAlrNpJg1SzDH4QW/URgNYgZTkjA4UkwJUgGXng+6DX1zLfmoymdXo17xh5zmRJ6Q42BWCfc2oJfdAr+Yv+AP9Cb7OJ3H/2JG1HNGz/84klThPVCc=);strokeColor=none;points=[];labelBackgroundColor=none;rounded=0;html=1;whiteSpace=wrap;" parent="1" vertex="1">
            <mxGeometry x="239" y="565" width="119" height="20" as="geometry" />
          </mxCell>
        </UserObject>
        <UserObject label="&lt;div style=&quot;font-size: 1px&quot;&gt;&lt;font style=&quot;font-size:11.29px;font-family:Segoe UI Semibold;color:#FFFFFF;direction:ltr;letter-spacing:0px;line-height:120%;opacity:1&quot;&gt;&lt;b&gt;Security&lt;br/&gt;&lt;/b&gt;&lt;/font&gt;&lt;/div&gt;" tags="Background" id="xrm-GU9jQfW-YAKHfBds-14">
          <mxCell style="verticalAlign=middle;align=center;overflow=width;vsdxID=7040;fillColor=#41719c;gradientColor=none;shape=stencil(nZBLDoAgDERP0z3SIyjew0SURgSD+Lu9kMZoXLhwN9O+tukAlrNpJg1SzDH4QW/URgNYgZTkjA4UkwJUgGXng+6DX1zLfmoymdXo17xh5zmRJ6Q42BWCfc2oJfdAr+Yv+AP9Cb7OJ3H/2JG1HNGz/84klThPVCc=);strokeColor=none;points=[];labelBackgroundColor=none;rounded=0;html=1;whiteSpace=wrap;" parent="1" vertex="1">
            <mxGeometry x="239" y="605" width="119" height="20" as="geometry" />
          </mxCell>
        </UserObject>
        <UserObject label="&lt;div style=&quot;font-size: 1px&quot;&gt;&lt;font style=&quot;font-size:11.29px;font-family:Segoe UI Semibold;color:#FFFFFF;direction:ltr;letter-spacing:0px;line-height:120%;opacity:1&quot;&gt;&lt;b&gt;ServiceHealth&lt;br/&gt;&lt;/b&gt;&lt;/font&gt;&lt;/div&gt;" tags="Background" id="xrm-GU9jQfW-YAKHfBds-15">
          <mxCell style="verticalAlign=middle;align=center;overflow=width;vsdxID=7041;fillColor=#41719c;gradientColor=none;shape=stencil(nZBLDoAgDERP0z3SIyjew0SURgSD+Lu9kMZoXLhwN9O+tukAlrNpJg1SzDH4QW/URgNYgZTkjA4UkwJUgGXng+6DX1zLfmoymdXo17xh5zmRJ6Q42BWCfc2oJfdAr+Yv+AP9Cb7OJ3H/2JG1HNGz/84klThPVCc=);strokeColor=none;points=[];labelBackgroundColor=none;rounded=0;html=1;whiteSpace=wrap;" parent="1" vertex="1">
            <mxGeometry x="239" y="645" width="119" height="20" as="geometry" />
          </mxCell>
        </UserObject>
        <UserObject label="&lt;div style=&quot;font-size: 1px&quot;&gt;&lt;font style=&quot;font-size:11.29px;font-family:Segoe UI Semibold;color:#FFFFFF;direction:ltr;letter-spacing:0px;line-height:120%;opacity:1&quot;&gt;&lt;b&gt;Alert&lt;br/&gt;&lt;/b&gt;&lt;/font&gt;&lt;/div&gt;" tags="Background" id="xrm-GU9jQfW-YAKHfBds-16">
          <mxCell style="verticalAlign=middle;align=center;overflow=width;vsdxID=7042;fillColor=#41719c;gradientColor=none;shape=stencil(nZBLDoAgDERP0z3SIyjew0SURgSD+Lu9kMZoXLhwN9O+tukAlrNpJg1SzDH4QW/URgNYgZTkjA4UkwJUgGXng+6DX1zLfmoymdXo17xh5zmRJ6Q42BWCfc2oJfdAr+Yv+AP9Cb7OJ3H/2JG1HNGz/84klThPVCc=);strokeColor=none;points=[];labelBackgroundColor=none;rounded=0;html=1;whiteSpace=wrap;" parent="1" vertex="1">
            <mxGeometry x="239" y="685" width="119" height="20" as="geometry" />
          </mxCell>
        </UserObject>
        <UserObject label="&lt;div style=&quot;font-size: 1px&quot;&gt;&lt;font style=&quot;font-size:11.29px;font-family:Segoe UI Semibold;color:#FFFFFF;direction:ltr;letter-spacing:0px;line-height:120%;opacity:1&quot;&gt;&lt;b&gt;Recommendations&lt;br/&gt;&lt;/b&gt;&lt;/font&gt;&lt;/div&gt;" tags="Background" id="xrm-GU9jQfW-YAKHfBds-17">
          <mxCell style="verticalAlign=middle;align=center;overflow=width;vsdxID=7043;fillColor=#41719c;gradientColor=none;shape=stencil(nZBLDoAgDERP0z3SIyjew0SURgSD+Lu9kMZoXLhwN9O+tukAlrNpJg1SzDH4QW/URgNYgZTkjA4UkwJUgGXng+6DX1zLfmoymdXo17xh5zmRJ6Q42BWCfc2oJfdAr+Yv+AP9Cb7OJ3H/2JG1HNGz/84klThPVCc=);strokeColor=none;points=[];labelBackgroundColor=none;rounded=0;html=1;whiteSpace=wrap;" parent="1" vertex="1">
            <mxGeometry x="239" y="725" width="119" height="20" as="geometry" />
          </mxCell>
        </UserObject>
        <UserObject label="&lt;div style=&quot;font-size: 1px&quot;&gt;&lt;font style=&quot;font-size:11.29px;font-family:Segoe UI Semibold;color:#FFFFFF;direction:ltr;letter-spacing:0px;line-height:120%;opacity:1&quot;&gt;&lt;b&gt;Policy&lt;br/&gt;&lt;/b&gt;&lt;/font&gt;&lt;/div&gt;" tags="Background" id="xrm-GU9jQfW-YAKHfBds-18">
          <mxCell style="verticalAlign=middle;align=center;overflow=width;vsdxID=7044;fillColor=#41719c;gradientColor=none;shape=stencil(nZBLDoAgDERP0z3SIyjew0SURgSD+Lu9kMZoXLhwN9O+tukAlrNpJg1SzDH4QW/URgNYgZTkjA4UkwJUgGXng+6DX1zLfmoymdXo17xh5zmRJ6Q42BWCfc2oJfdAr+Yv+AP9Cb7OJ3H/2JG1HNGz/84klThPVCc=);strokeColor=none;points=[];labelBackgroundColor=none;rounded=0;html=1;whiteSpace=wrap;" parent="1" vertex="1">
            <mxGeometry x="239" y="765" width="119" height="20" as="geometry" />
          </mxCell>
        </UserObject>
        <UserObject label="&lt;div style=&quot;font-size: 1px&quot;&gt;&lt;font style=&quot;font-size:11.29px;font-family:Segoe UI Semibold;color:#FFFFFF;direction:ltr;letter-spacing:0px;line-height:120%;opacity:1&quot;&gt;&lt;b&gt;Autoscale&lt;br/&gt;&lt;/b&gt;&lt;/font&gt;&lt;/div&gt;" tags="Background" id="xrm-GU9jQfW-YAKHfBds-19">
          <mxCell style="verticalAlign=middle;align=center;overflow=width;vsdxID=7045;fillColor=#41719c;gradientColor=none;shape=stencil(nZBLDoAgDERP0z3SIyjew0SURgSD+Lu9kMZoXLhwN9O+tukAlrNpJg1SzDH4QW/URgNYgZTkjA4UkwJUgGXng+6DX1zLfmoymdXo17xh5zmRJ6Q42BWCfc2oJfdAr+Yv+AP9Cb7OJ3H/2JG1HNGz/84klThPVCc=);strokeColor=none;points=[];labelBackgroundColor=none;rounded=0;html=1;whiteSpace=wrap;" parent="1" vertex="1">
            <mxGeometry x="239" y="805" width="119" height="20" as="geometry" />
          </mxCell>
        </UserObject>
        <UserObject label="" tags="Background" id="xrm-GU9jQfW-YAKHfBds-20">
          <mxCell style="vsdxID=7051;fillColor=none;gradientColor=none;strokeColor=none;spacingTop=-3;spacingBottom=-3;spacingLeft=-3;spacingRight=-3;points=[];labelBackgroundColor=none;rounded=0;html=1;whiteSpace=wrap;" parent="1" vertex="1">
            <mxGeometry x="106" y="645" width="64" height="77" as="geometry" />
          </mxCell>
        </UserObject>
        <mxCell id="xrm-GU9jQfW-YAKHfBds-21" style="vsdxID=7052;fillColor=none;gradientColor=none;strokeColor=none;spacingTop=-3;spacingBottom=-3;spacingLeft=-3;spacingRight=-3;points=[];labelBackgroundColor=none;rounded=0;html=1;whiteSpace=wrap;" parent="xrm-GU9jQfW-YAKHfBds-20" vertex="1">
          <mxGeometry width="64" height="77" as="geometry" />
        </mxCell>
        <mxCell id="xrm-GU9jQfW-YAKHfBds-22" style="vsdxID=7053;fillColor=#005ba1;gradientColor=none;shape=stencil(vVNdc4MgEPw1PHpzfBjhOU3/B9OgMrXiIGnSf18sOhHHpn3K23G77M1yLOHHsdWDIQzH4N27udpzaAl/IYzZvjXehlgRfiL8WDtvGu8u/TmdBz0xp+rDfU4Kt3QPgYrpEsOv1FBQ/pxfE7uz/Yot4VBlbApUrunav0XQz3SxoOhnPp/VF0FKQZaZIs54oW92LLwLOljXZ1infWOKOKqoO91k0Hg1Zli16e9eFIeK7YzedVJCRXMnAiqZW0HM1ASoZ1nZjlYIQjxaC7LtWvghM6MklCrXZKDkswxJBSLfzWJxl37fzn/Ym7eSgA9+/F/5iMU9WrXtupTMNb6NYmylGPPTNw==);strokeColor=none;strokeWidth=48;spacingTop=-3;spacingBottom=-3;spacingLeft=-3;spacingRight=-3;points=[];labelBackgroundColor=none;rounded=0;html=1;whiteSpace=wrap;" parent="xrm-GU9jQfW-YAKHfBds-21" vertex="1">
          <mxGeometry width="64" height="76" as="geometry" />
        </mxCell>
        <mxCell id="xrm-GU9jQfW-YAKHfBds-23" style="vsdxID=7054;fillColor=#FFFFFF;gradientColor=none;shape=stencil(vZNNbsQgDIVPwzIWP0kK6+n0HmiGJKg0RA7tpLcfUpAmRE03Vbuz/T4wD9lEnOZBT4ZwOgf0r+Zmr2Eg4plwbsfBoA0xIuJMxKnzaHr07+M15ZNeyTV68x/rDUs6R9cTnH6mrIVafhVeEuvsuGEbULzAGbB6i2u8RBEzXgPNOGZeAFOpkhEJT+WN+TlLpRc7V+iDDtaPheY09qaKrarO6b6Q5psx06bMjr2oBmT9TesDJ6zdOxGFEUbLj3zof+5k31pRkM1vvCgJbfk1KiL/5kcqEG05ZpQe4z8PcAwek99Z59LibPX9psRS2jJxvgM=);strokeColor=none;strokeWidth=48;spacingTop=-3;spacingBottom=-3;spacingLeft=-3;spacingRight=-3;points=[];labelBackgroundColor=none;rounded=0;html=1;whiteSpace=wrap;" parent="xrm-GU9jQfW-YAKHfBds-21" vertex="1">
          <mxGeometry x="4" y="2" width="56" height="71" as="geometry" />
        </mxCell>
        <mxCell id="xrm-GU9jQfW-YAKHfBds-24" style="vsdxID=7055;fillColor=#1988d9;gradientColor=#54aef0;shape=stencil(xZTBEoIgEIafhqMMgVaerd6DKVQmEmelsrcPo1QkLx3stux+y/KzLIhlTclrgShpDOizuMuTKRHbIUplVQqQxlqI7RHLcg2iAH2tTm5d847srIu+dTu0Li9d4zTpsih5OA95rQ4OVrIawQTH23mWw9FGIGDhA2OWOk87ziZhOOKtbCLQhhupKw9WHAoR2VJRrnjhhZq7EHXg/i7Eq5xucBLPK2F4FftKKE6Yp2RA3sSKkKW0hB38FJ9RQ5KpmnjtqekPH9zPAnKmxfu7/rU3cy/8L63xYGsMY5lLpdxUj+PTMbYu9wWw/RM=);strokeColor=none;strokeWidth=48;spacingTop=-3;spacingBottom=-3;spacingLeft=-3;spacingRight=-3;points=[];labelBackgroundColor=none;rounded=0;html=1;whiteSpace=wrap;" parent="xrm-GU9jQfW-YAKHfBds-21" vertex="1">
          <mxGeometry y="7" width="56" height="69" as="geometry" />
        </mxCell>
        <mxCell id="xrm-GU9jQfW-YAKHfBds-25" style="vsdxID=7056;fillColor=#FFFFFF;gradientColor=none;shape=stencil(vVPbEoIgEP0aHnUULO257D+YRGUicVZK+/swKC/UNGMzvi27Zzl7Fg4i+6akNUM4aBTIM2t5pkpEDghjXpUMuNIRIiki+1wCK0Beq8yca9oj++gib/0NnekL+g4c3M0pSXwcPTNHA6Zw0lWw4MjHW4MH2xCGfmxTDuYFCSxH59GONx5IRRWX1YRfUCiYp9m8XNBiUmpaxmonbecTvBqJ2W38OPpIvljOe3pnQyvomZMP4y3W465otddxfsafT/NtNytI+eEaHQx+y7kQxq7j+tyfOmW8TdIH);strokeColor=none;strokeWidth=48;spacingTop=-3;spacingBottom=-3;spacingLeft=-3;spacingRight=-3;points=[];labelBackgroundColor=none;rounded=0;html=1;whiteSpace=wrap;" parent="xrm-GU9jQfW-YAKHfBds-21" vertex="1">
          <mxGeometry x="12" y="25" width="29" height="10" as="geometry" />
        </mxCell>
        <UserObject label="&lt;div style=&quot;font-size: 1px&quot;&gt;&lt;font style=&quot;font-size:11.29px;font-family:Segoe UI Semibold;color:#FFFFFF;direction:ltr;letter-spacing:0px;line-height:120%;opacity:1&quot;&gt;&lt;b&gt;ResourceHealth&lt;br/&gt;&lt;/b&gt;&lt;/font&gt;&lt;/div&gt;" tags="Background" id="xrm-GU9jQfW-YAKHfBds-26">
          <mxCell style="verticalAlign=middle;align=center;overflow=width;vsdxID=7057;fillColor=#41719c;gradientColor=none;shape=stencil(nZBLDoAgDERP0z3SIyjew0SURgSD+Lu9kMZoXLhwN9O+tukAlrNpJg1SzDH4QW/URgNYgZTkjA4UkwJUgGXng+6DX1zLfmoymdXo17xh5zmRJ6Q42BWCfc2oJfdAr+Yv+AP9Cb7OJ3H/2JG1HNGz/84klThPVCc=);strokeColor=none;points=[];labelBackgroundColor=none;rounded=0;html=1;whiteSpace=wrap;" parent="1" vertex="1">
            <mxGeometry x="239" y="845" width="119" height="20" as="geometry" />
          </mxCell>
        </UserObject>
        <UserObject label="" tags="Background" id="xrm-GU9jQfW-YAKHfBds-47">
          <mxCell style="vsdxID=7626;fillColor=none;gradientColor=none;strokeColor=none;spacingTop=-3;spacingBottom=-3;spacingLeft=-3;spacingRight=-3;points=[];labelBackgroundColor=none;rounded=0;html=1;whiteSpace=wrap;" parent="1" vertex="1">
            <mxGeometry x="440" y="722" width="45" height="55" as="geometry" />
          </mxCell>
        </UserObject>
        <mxCell id="xrm-GU9jQfW-YAKHfBds-48" style="vsdxID=7627;fillColor=#1b93eb;gradientColor=none;shape=stencil(vZRRb4QgDMc/jY8SoALH8+32PcgdKpnTC3o79+2Hg5tWM5cs2d7g39KWX5tmcOxrc7UZp/3guxd7d5ehzuAp49y1tfVuCKcMThkcy87byne39hLvVzN5TqfX7m2KMMZ3jNLpDafv8V5IIvWn8hzdzzcf/dn6QRIUECGjNPIoSUpEckqKFoQnH4iKYERDckqS1kSyZW7jz8HsU6lA6CE+8KlYTkSRoqbqD0QW6D9zTDrmZnR97rvBDK5roz19pjG+snnIl5eNqZCpv1t7Xchsjw5oojTms/g6R4EfbCaAmA3FXDY9aVy7aCFuICsIiD2IrNhA1Ahi4KxwSEaU/EeGxVwA+6qAMQyRK0yRrsZrxZDuZVSA01GcSop5VPm2oMf0ynn2YA3ut70I46vYN/39k2bg0fpxO4TDvFlK1zRxMS3t600UpLjF4PQB);strokeColor=none;strokeWidth=48;spacingTop=-3;spacingBottom=-3;spacingLeft=-3;spacingRight=-3;points=[];labelBackgroundColor=none;rounded=0;html=1;whiteSpace=wrap;" parent="xrm-GU9jQfW-YAKHfBds-47" vertex="1">
          <mxGeometry width="45" height="55" as="geometry" />
        </mxCell>
        <mxCell id="xrm-GU9jQfW-YAKHfBds-49" style="vsdxID=7628;fillColor=#1b93eb;gradientColor=none;shape=stencil(vZTNcoIwEMefhiM7yS4Ecrb6HhlFzZSCE7DSt29ogma1taf2Fv77/VtmM1oNR3NqMhTD6PrX5mJ34zGjlwzRdsfG2dG/MlpntNr3rjm4/tztwvfJzJ7z661/nzNMIU5r0DhHofgISqGg/hI2wX97diFAPkZEqSJQOkgTBkkJwMUrSroErKIXBamUoGT0omt6hWl947be7GK/BLIMAS72i1AuWeMANRAf6ZZTTLmZ7JC7fjSj7btgF8HWGndocl8v37fmwEzDpWlOiSyfESINFQeUjo4s8QInRUjcg77fS2u7ZI+CDSwLqPQziHGABKIiBhFB1zylhOo/GRLUxCH6DoTkEFFBUXGQgkMs/N+qOEjxrK7fQ1HyuoLXVOraxlLTd3b/Z2sFuuR1bwR/WsrDThbgMYF42DLWf7cS/oP9fij843Zl9rZtw5FK7fdXyUvhotH6Ew==);strokeColor=none;strokeWidth=48;spacingTop=-3;spacingBottom=-3;spacingLeft=-3;spacingRight=-3;points=[];labelBackgroundColor=none;rounded=0;html=1;whiteSpace=wrap;" parent="xrm-GU9jQfW-YAKHfBds-47" vertex="1">
          <mxGeometry x="2" y="2" width="41" height="51" as="geometry" />
        </mxCell>
        <mxCell id="xrm-GU9jQfW-YAKHfBds-50" style="vsdxID=7629;fillColor=#c3f1ff;gradientColor=none;shape=stencil(xZTbcoMgEIafhkt3OIjCdZq+B9OgMrXioGns2xcK00rSpL2Ik7tlD/DtzvIjtps6NWpE8TQ7+6pP5jB3iD0hSs3QaWdmbyG2R2zXWKdbZ4/DIZ5HFTKD9Wbfww1LrOM4lFD8EY8lB0K+PM8xW7kXH3Upm9bAy1jgUgXngGV0paS6BsKzWyUFljxLoRYzFc7OajZ2iPHE0CvX6sK/WDS9arPQdNJ6XLlvMJZQyRxRAhMZoSAgyoyQYHxXPrzm682wmrjkEGK/PH6tHXHRTp218w2fEoQEUW3XTs7HMdCzeXse4PlOPBDwHwMsoRaPWgcigFR3XQdKQWz9/24QBo1glxqRM16VnU0EIp/4X5LnjR+1bEzfR7Fdx8/V1buiMrP9Jw==);strokeColor=none;strokeWidth=48;spacingTop=-3;spacingBottom=-3;spacingLeft=-3;spacingRight=-3;points=[];labelBackgroundColor=none;rounded=0;html=1;whiteSpace=wrap;" parent="xrm-GU9jQfW-YAKHfBds-47" vertex="1">
          <mxGeometry x="5" y="12" width="34" height="17" as="geometry" />
        </mxCell>
        <mxCell id="xrm-GU9jQfW-YAKHfBds-51" style="vsdxID=7630;fillColor=#FFFFFF;gradientColor=none;shape=stencil(vVHLDsIgEPwajiQI6RfU+h8bu22JCGRB2/69kG1iazx58DazM/vIjjBtmiCi0CplCjecbZ8nYc5Ca+snJJsLEqYTph0C4Ujh4XvmEaqzont41gkL96naodXKrGF6YSfQtUi0OXXDVlqPfJNP6usotUhYbJIUMmQb/GGrAxpRljVycDBuc1hKM2LclX8/7H9nFfB+82Cd45T2+mcspcSRmu4F);strokeColor=none;strokeWidth=48;spacingTop=-3;spacingBottom=-3;spacingLeft=-3;spacingRight=-3;points=[];labelBackgroundColor=none;rounded=0;html=1;whiteSpace=wrap;" parent="xrm-GU9jQfW-YAKHfBds-47" vertex="1">
          <mxGeometry x="16" y="22" width="12" height="12" as="geometry" />
        </mxCell>
        <UserObject label="" tags="Background" id="xrm-GU9jQfW-YAKHfBds-52">
          <mxCell style="vsdxID=7667;fillColor=none;gradientColor=none;strokeColor=none;spacingTop=-3;spacingBottom=-3;spacingLeft=-3;spacingRight=-3;points=[];labelBackgroundColor=none;rounded=0;html=1;whiteSpace=wrap;" parent="1" vertex="1">
            <mxGeometry x="497" y="724" width="51" height="51" as="geometry" />
          </mxCell>
        </UserObject>
        <mxCell id="xrm-GU9jQfW-YAKHfBds-53" style="vsdxID=7668;fillColor=none;gradientColor=none;strokeColor=none;spacingTop=-3;spacingBottom=-3;spacingLeft=-3;spacingRight=-3;points=[];labelBackgroundColor=none;rounded=0;html=1;whiteSpace=wrap;" parent="xrm-GU9jQfW-YAKHfBds-52" vertex="1">
          <mxGeometry width="51" height="51" as="geometry" />
        </mxCell>
        <mxCell id="xrm-GU9jQfW-YAKHfBds-54" style="vsdxID=7669;fillColor=#a0a1a2;gradientColor=none;shape=stencil(pZTdDsIgDIWfhlvS0cTN6znfY8mYI86xsPn39g6JYUpEwLu2nANfgZRgOXX1yAmDaVbyyK+imTuCO8KYGDquxLxEBCuCZSsVPyh5HhqTj7VW6ugkL3qHm/GBdjC4mww3NMuelb0R92JYiVlO8+I/wwZpsf1ugHSxg+JrFGKYo8S2EsAcJYbQ5nJGdRrOHG3IwHMnkCp1MN6btA8cyG2/T7LBS+8CRcp/NGyXA/lfxyfKvfQuTKTcgVkCO5Va0fdmqK3XP6fYUjITEKsH);strokeColor=none;strokeWidth=17;spacingTop=-3;spacingBottom=-3;spacingLeft=-3;spacingRight=-3;points=[];labelBackgroundColor=none;rounded=0;html=1;whiteSpace=wrap;" parent="xrm-GU9jQfW-YAKHfBds-53" vertex="1">
          <mxGeometry y="12" width="38" height="38" as="geometry" />
        </mxCell>
        <mxCell id="xrm-GU9jQfW-YAKHfBds-55" style="vsdxID=7670;fillColor=#0072c6;gradientColor=none;shape=stencil(fZLdDoMgDIWfhlsDbRbjtXPvYSZOMqcGdcO3n6T+ABrvWvgO7SllmPZV3kkGvB90+5Y/VQwVwzsDUE0ltRrmiGHGMC1bLV+6HZuC8i63pI0+7de+YEh341YCfKKUsgeRz1ETKugSIOJiwYXLcwNeOsFBYNAn0Cu/FKxV47Tmdyb4BXq7ZEMfcRwlie9jVWxOtoPViyNavezMqZuw7I4f52mOVSZ/pgYDq3jyY5dT8cg52FeiVHVNG+Xehys0H9H6YfYH);strokeColor=none;strokeWidth=17;spacingTop=-3;spacingBottom=-3;spacingLeft=-3;spacingRight=-3;points=[];labelBackgroundColor=none;rounded=0;html=1;whiteSpace=wrap;" parent="xrm-GU9jQfW-YAKHfBds-53" vertex="1">
          <mxGeometry x="14" width="37" height="37" as="geometry" />
        </mxCell>
        <mxCell id="xrm-GU9jQfW-YAKHfBds-56" style="vsdxID=7671;fillColor=#FFFFFF;gradientColor=none;shape=stencil(pZPdDoMgDIWfhlsCRZF7597DRJxkTgzqft5+MrJMZoZT79rynea0pIilXZW3EgHpeqPP8qaKvkLsgABUU0mj+jFCLEMsLbWRJ6OHpnB5m1vSRhd9tR3uTkesAsjDZcAxT16Vo4Nr1UxgmmAe7xNQQn7jZCu6YGMB9jcSUUyFJ4jC3WOBBewTBEedG1qJL9j5Q+BvSABm/q8G7Ly9bkCDY85NrMS3w2PwOadS1bW7xun79/mNJXe6LHsC);strokeColor=none;strokeWidth=17;spacingTop=-3;spacingBottom=-3;spacingLeft=-3;spacingRight=-3;points=[];labelBackgroundColor=none;rounded=0;html=1;whiteSpace=wrap;" parent="xrm-GU9jQfW-YAKHfBds-53" vertex="1">
          <mxGeometry x="21" y="11" width="18" height="16" as="geometry" />
        </mxCell>
        <UserObject label="" tags="Background" id="xrm-GU9jQfW-YAKHfBds-57">
          <mxCell style="vsdxID=7001;edgeStyle=none;startArrow=classic;endArrow=none;startSize=2;endSize=2;strokeWidth=3;strokeColor=#7f7f7f;spacingTop=0;spacingBottom=0;spacingLeft=0;spacingRight=0;verticalAlign=middle;html=1;labelBackgroundColor=#FFFFFF;rounded=0;" parent="1" edge="1">
            <mxGeometry relative="1" as="geometry">
              <Array as="points" />
              <mxPoint x="239" y="855" as="sourcePoint" />
              <mxPoint x="199" y="855" as="targetPoint" />
            </mxGeometry>
          </mxCell>
        </UserObject>
        <UserObject label="" tags="Background" id="xrm-GU9jQfW-YAKHfBds-58">
          <mxCell style="vsdxID=7023;edgeStyle=none;startArrow=classic;endArrow=none;startSize=2;endSize=2;strokeWidth=3;strokeColor=#7f7f7f;spacingTop=0;spacingBottom=0;spacingLeft=0;spacingRight=0;verticalAlign=middle;html=1;labelBackgroundColor=#FFFFFF;rounded=0;" parent="1" edge="1">
            <mxGeometry relative="1" as="geometry">
              <Array as="points" />
              <mxPoint x="238" y="575" as="sourcePoint" />
              <mxPoint x="199" y="575" as="targetPoint" />
            </mxGeometry>
          </mxCell>
        </UserObject>
        <UserObject label="" tags="Background" id="xrm-GU9jQfW-YAKHfBds-59">
          <mxCell style="vsdxID=7024;edgeStyle=none;startArrow=classic;endArrow=none;startSize=2;endSize=2;strokeWidth=3;strokeColor=#7f7f7f;spacingTop=0;spacingBottom=0;spacingLeft=0;spacingRight=0;verticalAlign=middle;html=1;labelBackgroundColor=#FFFFFF;rounded=0;" parent="1" edge="1">
            <mxGeometry relative="1" as="geometry">
              <Array as="points" />
              <mxPoint x="238" y="615" as="sourcePoint" />
              <mxPoint x="199" y="615" as="targetPoint" />
            </mxGeometry>
          </mxCell>
        </UserObject>
        <UserObject label="" tags="Background" id="xrm-GU9jQfW-YAKHfBds-60">
          <mxCell style="vsdxID=7025;edgeStyle=none;startArrow=classic;endArrow=none;startSize=2;endSize=2;strokeWidth=3;strokeColor=#7f7f7f;spacingTop=0;spacingBottom=0;spacingLeft=0;spacingRight=0;verticalAlign=middle;html=1;labelBackgroundColor=#FFFFFF;rounded=0;" parent="1" edge="1">
            <mxGeometry relative="1" as="geometry">
              <Array as="points" />
              <mxPoint x="238" y="654" as="sourcePoint" />
              <mxPoint x="199" y="654" as="targetPoint" />
            </mxGeometry>
          </mxCell>
        </UserObject>
        <UserObject label="" tags="Background" id="xrm-GU9jQfW-YAKHfBds-61">
          <mxCell style="vsdxID=7026;edgeStyle=none;startArrow=classic;endArrow=none;startSize=2;endSize=2;strokeWidth=3;strokeColor=#7f7f7f;spacingTop=0;spacingBottom=0;spacingLeft=0;spacingRight=0;verticalAlign=middle;html=1;labelBackgroundColor=#FFFFFF;rounded=0;" parent="1" edge="1">
            <mxGeometry relative="1" as="geometry">
              <Array as="points" />
              <mxPoint x="238" y="696" as="sourcePoint" />
              <mxPoint x="199" y="696" as="targetPoint" />
            </mxGeometry>
          </mxCell>
        </UserObject>
        <UserObject label="" tags="Background" id="xrm-GU9jQfW-YAKHfBds-62">
          <mxCell style="vsdxID=7027;edgeStyle=none;startArrow=classic;endArrow=none;startSize=2;endSize=2;strokeWidth=3;strokeColor=#7f7f7f;spacingTop=0;spacingBottom=0;spacingLeft=0;spacingRight=0;verticalAlign=middle;html=1;labelBackgroundColor=#FFFFFF;rounded=0;" parent="1" edge="1">
            <mxGeometry relative="1" as="geometry">
              <Array as="points" />
              <mxPoint x="238" y="734" as="sourcePoint" />
              <mxPoint x="199" y="734" as="targetPoint" />
            </mxGeometry>
          </mxCell>
        </UserObject>
        <UserObject label="" tags="Background" id="xrm-GU9jQfW-YAKHfBds-63">
          <mxCell style="vsdxID=7028;edgeStyle=none;startArrow=classic;endArrow=none;startSize=2;endSize=2;strokeWidth=3;strokeColor=#7f7f7f;spacingTop=0;spacingBottom=0;spacingLeft=0;spacingRight=0;verticalAlign=middle;html=1;labelBackgroundColor=#FFFFFF;rounded=0;" parent="1" edge="1">
            <mxGeometry relative="1" as="geometry">
              <Array as="points" />
              <mxPoint x="238" y="775" as="sourcePoint" />
              <mxPoint x="199" y="775" as="targetPoint" />
            </mxGeometry>
          </mxCell>
        </UserObject>
        <UserObject label="" tags="Background" id="xrm-GU9jQfW-YAKHfBds-64">
          <mxCell style="vsdxID=7029;edgeStyle=none;startArrow=classic;endArrow=none;startSize=2;endSize=2;strokeWidth=3;strokeColor=#7f7f7f;spacingTop=0;spacingBottom=0;spacingLeft=0;spacingRight=0;verticalAlign=middle;html=1;labelBackgroundColor=#FFFFFF;rounded=0;" parent="1" edge="1">
            <mxGeometry relative="1" as="geometry">
              <Array as="points" />
              <mxPoint x="238" y="815" as="sourcePoint" />
              <mxPoint x="199" y="815" as="targetPoint" />
            </mxGeometry>
          </mxCell>
        </UserObject>
        <UserObject label="" tags="Background" id="xrm-GU9jQfW-YAKHfBds-65">
          <mxCell style="vsdxID=7329;edgeStyle=none;startArrow=classic;endArrow=none;startSize=2;endSize=2;strokeWidth=3;strokeColor=#7f7f7f;spacingTop=0;spacingBottom=0;spacingLeft=0;spacingRight=0;verticalAlign=middle;html=1;labelBackgroundColor=#FFFFFF;rounded=0;" parent="1" edge="1">
            <mxGeometry relative="1" as="geometry">
              <Array as="points" />
              <mxPoint x="399" y="854" as="sourcePoint" />
              <mxPoint x="359" y="854" as="targetPoint" />
            </mxGeometry>
          </mxCell>
        </UserObject>
        <UserObject label="" tags="Background" id="xrm-GU9jQfW-YAKHfBds-66">
          <mxCell style="vsdxID=7330;edgeStyle=none;startArrow=classic;endArrow=none;startSize=2;endSize=2;strokeWidth=3;strokeColor=#7f7f7f;spacingTop=0;spacingBottom=0;spacingLeft=0;spacingRight=0;verticalAlign=middle;html=1;labelBackgroundColor=#FFFFFF;rounded=0;" parent="1" edge="1">
            <mxGeometry relative="1" as="geometry">
              <Array as="points" />
              <mxPoint x="398" y="575" as="sourcePoint" />
              <mxPoint x="359" y="575" as="targetPoint" />
            </mxGeometry>
          </mxCell>
        </UserObject>
        <UserObject label="" tags="Background" id="xrm-GU9jQfW-YAKHfBds-67">
          <mxCell style="vsdxID=7331;edgeStyle=none;startArrow=classic;endArrow=none;startSize=2;endSize=2;strokeWidth=3;strokeColor=#7f7f7f;spacingTop=0;spacingBottom=0;spacingLeft=0;spacingRight=0;verticalAlign=middle;html=1;labelBackgroundColor=#FFFFFF;rounded=0;" parent="1" edge="1">
            <mxGeometry relative="1" as="geometry">
              <Array as="points" />
              <mxPoint x="398" y="615" as="sourcePoint" />
              <mxPoint x="359" y="615" as="targetPoint" />
            </mxGeometry>
          </mxCell>
        </UserObject>
        <UserObject label="" tags="Background" id="xrm-GU9jQfW-YAKHfBds-68">
          <mxCell style="vsdxID=7332;edgeStyle=none;startArrow=classic;endArrow=none;startSize=2;endSize=2;strokeWidth=3;strokeColor=#7f7f7f;spacingTop=0;spacingBottom=0;spacingLeft=0;spacingRight=0;verticalAlign=middle;html=1;labelBackgroundColor=#FFFFFF;rounded=0;" parent="1" edge="1">
            <mxGeometry relative="1" as="geometry">
              <Array as="points" />
              <mxPoint x="398" y="654" as="sourcePoint" />
              <mxPoint x="359" y="654" as="targetPoint" />
            </mxGeometry>
          </mxCell>
        </UserObject>
        <UserObject label="" tags="Background" id="xrm-GU9jQfW-YAKHfBds-69">
          <mxCell style="vsdxID=7333;edgeStyle=none;startArrow=classic;endArrow=none;startSize=2;endSize=2;strokeWidth=3;strokeColor=#7f7f7f;spacingTop=0;spacingBottom=0;spacingLeft=0;spacingRight=0;verticalAlign=middle;html=1;labelBackgroundColor=#FFFFFF;rounded=0;" parent="1" edge="1">
            <mxGeometry relative="1" as="geometry">
              <Array as="points" />
              <mxPoint x="398" y="695" as="sourcePoint" />
              <mxPoint x="359" y="695" as="targetPoint" />
            </mxGeometry>
          </mxCell>
        </UserObject>
        <UserObject label="" tags="Background" id="xrm-GU9jQfW-YAKHfBds-70">
          <mxCell style="vsdxID=7334;edgeStyle=none;startArrow=classic;endArrow=none;startSize=2;endSize=2;strokeWidth=3;strokeColor=#7f7f7f;spacingTop=0;spacingBottom=0;spacingLeft=0;spacingRight=0;verticalAlign=middle;html=1;labelBackgroundColor=#FFFFFF;rounded=0;" parent="1" edge="1">
            <mxGeometry relative="1" as="geometry">
              <Array as="points" />
              <mxPoint x="398" y="733" as="sourcePoint" />
              <mxPoint x="359" y="733" as="targetPoint" />
            </mxGeometry>
          </mxCell>
        </UserObject>
        <UserObject label="" tags="Background" id="xrm-GU9jQfW-YAKHfBds-71">
          <mxCell style="vsdxID=7335;edgeStyle=none;startArrow=classic;endArrow=none;startSize=2;endSize=2;strokeWidth=3;strokeColor=#7f7f7f;spacingTop=0;spacingBottom=0;spacingLeft=0;spacingRight=0;verticalAlign=middle;html=1;labelBackgroundColor=#FFFFFF;rounded=0;" parent="1" edge="1">
            <mxGeometry relative="1" as="geometry">
              <Array as="points" />
              <mxPoint x="398" y="775" as="sourcePoint" />
              <mxPoint x="359" y="775" as="targetPoint" />
            </mxGeometry>
          </mxCell>
        </UserObject>
        <UserObject label="" tags="Background" id="xrm-GU9jQfW-YAKHfBds-72">
          <mxCell style="vsdxID=7336;edgeStyle=none;startArrow=classic;endArrow=none;startSize=2;endSize=2;strokeWidth=3;strokeColor=#7f7f7f;spacingTop=0;spacingBottom=0;spacingLeft=0;spacingRight=0;verticalAlign=middle;html=1;labelBackgroundColor=#FFFFFF;rounded=0;" parent="1" edge="1">
            <mxGeometry relative="1" as="geometry">
              <Array as="points" />
              <mxPoint x="398" y="815" as="sourcePoint" />
              <mxPoint x="359" y="815" as="targetPoint" />
            </mxGeometry>
          </mxCell>
        </UserObject>
        <mxCell id="xrm-GU9jQfW-YAKHfBds-73" value="" style="image;aspect=fixed;html=1;points=[];align=center;fontSize=12;image=img/lib/azure2/storage/Storage_Accounts.svg;" parent="1" vertex="1">
          <mxGeometry x="456.5" y="593" width="65" height="52" as="geometry" />
        </mxCell>
      </root>
    </mxGraphModel>
  </diagram>
</mxfile>
